<svg xmlns="http://www.w3.org/2000/svg" version="1.1" xmlns:xlink="http://www.w3.org/1999/xlink" xmlns:svgjs="http://svgjs.dev/svgjs" width="1440" height="660" preserveAspectRatio="none" viewBox="0 0 1440 660"><g mask="url(&quot;#SvgjsMask1026&quot;)" fill="none"><rect width="1440" height="660" x="0" y="0" fill="rgba(255, 255, 255, 1)"></rect><path d="M1277.8595694239623 222.35749768838934L1372.084774743379 347.64682083529755 1427.8234628143773 222.45567769865949z" fill="rgba(28, 83, 142, 0.4)" class="triangle-float3"></path><path d="M675.1994880100139 414.0050212637716L540.8888220918845 530.7595018936673 657.6433027217802 665.0701678117966 791.9539686399096 548.315687181901z" fill="rgba(28, 83, 142, 0.4)" class="triangle-float2"></path><path d="M1225.855,200.95C1266.215,203.097,1311.383,200.735,1333.805,167.108C1358.098,130.673,1354.908,80.685,1330.11,44.592C1307.887,12.245,1265.07,8.442,1225.855,9.985C1190.048,11.394,1153.61,21.707,1134.902,52.271C1115.444,84.061,1116.672,124.796,1136.122,156.591C1154.784,187.097,1190.144,199.05,1225.855,200.95" fill="rgba(28, 83, 142, 0.4)" class="triangle-float1"></path><path d="M1188.6659383774936 427.0045153854864L1244.4772981876908 580.3449662130605 1342.0063892050678 371.1931555752892z" fill="rgba(28, 83, 142, 0.4)" class="triangle-float1"></path><path d="M1111.563,263.949C1134.989,263.477,1154.524,246.698,1164.795,225.638C1173.901,206.967,1167.922,186.323,1158.434,167.843C1147.73,146.995,1134.976,122.972,1111.563,121.955C1087.117,120.893,1068.674,141.9,1057.065,163.44C1046.137,183.716,1043.504,207.611,1054.483,227.859C1065.983,249.069,1087.441,264.435,1111.563,263.949" fill="rgba(28, 83, 142, 0.4)" class="triangle-float3"></path><path d="M390.356,490.166C423.682,488.431,454.132,471.673,470.858,442.796C487.626,413.847,488.585,378.233,472.026,349.165C455.302,319.808,424.097,303.253,390.356,301.483C352.825,299.515,312.643,308.1,292.365,339.743C270.722,373.516,271.999,418.4,293.894,452.01C314.123,483.063,353.345,492.093,390.356,490.166" fill="rgba(28, 83, 142, 0.4)" class="triangle-float1"></path><path d="M-18.928323707556906 260.020267562289L-72.43912856588085 446.6346213267602 114.17522519859034 500.14542618508415 167.6860300569143 313.53107242061293z" fill="rgba(28, 83, 142, 0.4)" class="triangle-float1"></path><path d="M563.4213117466588 385.5968433253337L618.5944523326972 330.4237027392953 508.24817116062053 275.25056215325696z" fill="rgba(28, 83, 142, 0.4)" class="triangle-float1"></path><path d="M903.9448049399028 333.1004119947087L840.1922028401359 392.5506752332729 961.2438987478656 458.45444676364116z" fill="rgba(28, 83, 142, 0.4)" class="triangle-float2"></path><path d="M1303.189,786.053C1362.579,787.874,1427.959,776.278,1457.867,724.936C1487.911,673.36,1464.495,611.42,1435.213,559.409C1405.182,506.068,1364.177,455.45,1303.189,450.198C1233.256,444.175,1157.421,470.493,1124.872,532.682C1093.825,592.002,1125.576,661.177,1164.11,715.93C1196.137,761.437,1247.568,784.348,1303.189,786.053" fill="rgba(28, 83, 142, 0.4)" class="triangle-float2"></path><path d="M1270.8434734932898 270.3272689598224L1306.2846548635448 103.58961996983345 1139.547005873556 68.14843859957841 1104.105824503301 234.88608758956735z" fill="rgba(28, 83, 142, 0.4)" class="triangle-float1"></path><path d="M783.2777125507823 408.66185842062134L700.7013367992668 418.80096245822443 757.1981807314293 537.5959740666962z" fill="rgba(28, 83, 142, 0.4)" class="triangle-float3"></path></g><defs><mask id="SvgjsMask1026"><rect width="1440" height="660" fill="#ffffff"></rect></mask><style>
                @keyframes float1 {
                    0%{transform: translate(0, 0)}
                    50%{transform: translate(-10px, 0)}
                    100%{transform: translate(0, 0)}
                }

                .triangle-float1 {
                    animation: float1 5s infinite;
                }

                @keyframes float2 {
                    0%{transform: translate(0, 0)}
                    50%{transform: translate(-5px, -5px)}
                    100%{transform: translate(0, 0)}
                }

                .triangle-float2 {
                    animation: float2 4s infinite;
                }

                @keyframes float3 {
                    0%{transform: translate(0, 0)}
                    50%{transform: translate(0, -10px)}
                    100%{transform: translate(0, 0)}
                }

                .triangle-float3 {
                    animation: float3 6s infinite;
                }
            </style></defs></svg>