<svg xmlns="http://www.w3.org/2000/svg" version="1.1" xmlns:xlink="http://www.w3.org/1999/xlink" xmlns:svgjs="http://svgjs.dev/svgjs" width="1440" height="660" preserveAspectRatio="none" viewBox="0 0 1440 660"><g mask="url(&quot;#SvgjsMask1005&quot;)" fill="none"><path d="M490.5419275020837 565.7243510494193L526.0463721696235 498.95020232575285 408.13292675035393 479.08060968627643z" fill="rgba(28, 83, 142, 0.4)" class="triangle-float2"></path><path d="M366.62101693175026 338.98091583438645L411.4531718897318 462.15624924693134 573.8000945295582 333.3203501036866z" fill="rgba(28, 83, 142, 0.4)" class="triangle-float2"></path><path d="M1350.2339033548906 637.6884713963108L1483.8390413508048 738.566939033654 1504.2062552074904 593.64668222847z" fill="rgba(28, 83, 142, 0.4)" class="triangle-float3"></path><path d="M1357.015,208.639C1407.9,210.288,1455.633,180.615,1479.36,135.57C1501.691,93.174,1490.365,43.269,1465.788,2.134C1441.952,-37.76,1403.316,-65.209,1357.015,-69.197C1301.853,-73.948,1236.938,-68.314,1210.097,-19.889C1183.658,27.81,1218.185,82.187,1247.677,128.061C1273.918,168.879,1308.515,207.067,1357.015,208.639" fill="rgba(28, 83, 142, 0.4)" class="triangle-float2"></path><path d="M1299.4236050426152 307.4717291059188L1440.8486687898383 399.31423937180733 1532.691179055727 257.8891756245843 1391.2661153085037 166.04666535869578z" fill="rgba(28, 83, 142, 0.4)" class="triangle-float2"></path><path d="M1129.384,612.082C1178.858,612.969,1214.271,568.871,1237.035,524.936C1257.729,484.997,1260.113,439.173,1239.758,399.06C1217.11,354.427,1179.432,312.329,1129.384,312.787C1079.85,313.24,1044.084,356.484,1022.452,401.047C1003.686,439.706,1008.797,482.858,1028.22,521.191C1050.181,564.532,1080.805,611.211,1129.384,612.082" fill="rgba(28, 83, 142, 0.4)" class="triangle-float2"></path><path d="M229.17,710.987C274.177,713.269,316.499,684.673,336.117,644.102C353.763,607.608,338.054,566.192,315.459,532.538C295.822,503.29,264.311,487.302,229.17,484.811C188.011,481.893,139.97,483.218,118.726,518.591C97.133,554.545,118.612,597.759,139.492,634.132C160.499,670.726,187.029,708.85,229.17,710.987" fill="rgba(28, 83, 142, 0.4)" class="triangle-float2"></path><path d="M454.0793630466991 314.8927829861872L580.3733896384781 241.97689273638179 381.16347279689364 188.5987563944082z" fill="rgba(28, 83, 142, 0.4)" class="triangle-float2"></path><path d="M870.9361304284356 350.08759133816346L986.9846147229372 344.0057479871257 864.8542870773979 234.0391070436619z" fill="rgba(28, 83, 142, 0.4)" class="triangle-float1"></path><path d="M227.942,547.391C283.734,548.106,347.723,546.003,376.091,497.956C404.737,449.438,377.878,390.907,348.843,342.621C320.979,296.283,281.889,255.232,227.942,251.581C167.588,247.496,105.437,271.844,74.931,324.081C44.206,376.692,51.792,443.981,86.23,494.24C116.794,538.846,173.873,546.698,227.942,547.391" fill="rgba(28, 83, 142, 0.4)" class="triangle-float3"></path><path d="M1294.8820168913749 513.9948059162487L1167.4046609233408 502.8419824127869 1156.2518374198792 630.3193383808209 1283.729193387913 641.4721618842826z" fill="rgba(28, 83, 142, 0.4)" class="triangle-float3"></path><path d="M1044.4184904238232 86.48987044055593L1077.2741992182976 241.7914518678429 1181.9998709150798 150.75481435293406z" fill="rgba(28, 83, 142, 0.4)" class="triangle-float1"></path></g><defs><mask id="SvgjsMask1005"><rect width="1440" height="660" fill="#ffffff"></rect></mask><style>
                @keyframes float1 {
                    0%{transform: translate(0, 0)}
                    50%{transform: translate(-10px, 0)}
                    100%{transform: translate(0, 0)}
                }

                .triangle-float1 {
                    animation: float1 5s infinite;
                }

                @keyframes float2 {
                    0%{transform: translate(0, 0)}
                    50%{transform: translate(-5px, -5px)}
                    100%{transform: translate(0, 0)}
                }

                .triangle-float2 {
                    animation: float2 4s infinite;
                }

                @keyframes float3 {
                    0%{transform: translate(0, 0)}
                    50%{transform: translate(0, -10px)}
                    100%{transform: translate(0, 0)}
                }

                .triangle-float3 {
                    animation: float3 6s infinite;
                }
            </style></defs></svg>