<svg xmlns="http://www.w3.org/2000/svg" version="1.1" xmlns:xlink="http://www.w3.org/1999/xlink" xmlns:svgjs="http://svgjs.dev/svgjs" width="1440" height="560" preserveAspectRatio="none" viewBox="0 0 1440 560"><g mask="url(&quot;#SvgjsMask1001&quot;)" fill="none"><rect width="1440" height="560" x="0" y="0" fill="rgba(255, 255, 255, 1)"></rect><path d="M977.47 210.03L1030.12 210.03L1030.12 263.95L977.47 263.95z" stroke="#e73635"></path><path d="M128.91 532.23L166.64 532.23L166.64 540.04L128.91 540.04z" fill="#d3b714"></path><path d="M166.27 33.23a35.18 35.18 0 1 0 56.36-42.13z" fill="#e73635"></path><path d="M831.33 370.92L866.52 370.92L866.52 406.11L831.33 406.11z" fill="#037b0b"></path><path d="M314.21 10.28L340.74 10.28L340.74 31.81L314.21 31.81z" stroke="#037b0b"></path><path d="M429.77 521.83L458.78 521.83L458.78 550.84L429.77 550.84z" fill="#e73635"></path><path d="M384.81 457.9L390.49 457.9L390.49 463.58L384.81 463.58z" stroke="#d3b714"></path><path d="M875.11 404.1 a29.82 29.82 0 1 0 59.64 0 a29.82 29.82 0 1 0 -59.64 0z" fill="#e73635"></path><path d="M584.15 390.8a0.22 0.22 0 1 0-0.26-0.35z" fill="#e73635"></path><path d="M396.39 122.63a11.6 11.6 0 1 0-13.54-18.85z" stroke="#e73635"></path><path d="M857.43 11.51 a34.74 34.74 0 1 0 69.48 0 a34.74 34.74 0 1 0 -69.48 0z" fill="#e73635"></path><path d="M403.73 240.04a5.26 5.26 0 1 0 10.42-1.5z" fill="#d3b714"></path><path d="M455.92 466.47a27.75 27.75 0 1 0-17.46 52.68z" fill="#d3b714"></path><path d="M319.06 122.6a49.57 49.57 0 1 0 74.42-65.5z" stroke="#d3b714"></path><path d="M1192.04 238.24 a10.91 10.91 0 1 0 21.82 0 a10.91 10.91 0 1 0 -21.82 0z" fill="#d3b714"></path><path d="M797.12 537.77 a0.38 0.38 0 1 0 0.76 0 a0.38 0.38 0 1 0 -0.76 0z" fill="#d3b714"></path><path d="M765.6 504.06 a13.06 13.06 0 1 0 26.12 0 a13.06 13.06 0 1 0 -26.12 0z" stroke="#037b0b"></path><path d="M323.64 146.92L356.01 146.92L356.01 166.37L323.64 166.37z" fill="#e73635"></path><path d="M580.56 50.26a12.84 12.84 0 1 0-0.19 25.68z" stroke="#e73635"></path><path d="M772.99 166.44L786.55 166.44L786.55 177.18L772.99 177.18z" stroke="#e73635"></path><path d="M633.95 518.23 a52.05 52.05 0 1 0 104.1 0 a52.05 52.05 0 1 0 -104.1 0z" stroke="#d3b714"></path><path d="M1016.18 101.84 a5.41 5.41 0 1 0 10.82 0 a5.41 5.41 0 1 0 -10.82 0z" stroke="#d3b714"></path><path d="M97.47 472.21a48.64 48.64 0 1 0 88.14 41.16z" stroke="#037b0b"></path><path d="M149.78 193.9 a20.41 20.41 0 1 0 40.82 0 a20.41 20.41 0 1 0 -40.82 0z" stroke="#d3b714"></path><path d="M938.42 228.83L975.07 228.83L975.07 263.01L938.42 263.01z" fill="#037b0b"></path><path d="M811.96 359.69L827.81 359.69L827.81 375.54L811.96 375.54z" fill="#d3b714"></path><path d="M551.48 62.79L577.13 62.79L577.13 88.44L551.48 88.44z" stroke="#d3b714"></path><path d="M811.38 469.65a12.27 12.27 0 1 0 9.53 22.61z" fill="#037b0b"></path><path d="M1283.37 357.58a21.08 21.08 0 1 0 10.54 40.82z" fill="#d3b714"></path><path d="M580.78 83.62 a1.83 1.83 0 1 0 3.66 0 a1.83 1.83 0 1 0 -3.66 0z" stroke="#d3b714"></path><path d="M1320.97 335.36L1334.32 335.36L1334.32 337.94L1320.97 337.94z" stroke="#d3b714"></path><path d="M508.98 496.34 a12.46 12.46 0 1 0 24.92 0 a12.46 12.46 0 1 0 -24.92 0z" stroke="#d3b714"></path><path d="M1252.93 525.64L1258.95 525.64L1258.95 531.66L1252.93 531.66z" fill="#e73635"></path></g><defs><mask id="SvgjsMask1001"><rect width="1440" height="560" fill="#ffffff"></rect></mask></defs></svg>