<svg xmlns="http://www.w3.org/2000/svg" version="1.1" xmlns:xlink="http://www.w3.org/1999/xlink" xmlns:svgjs="http://svgjs.dev/svgjs" width="1440" height="700" preserveAspectRatio="none" viewBox="0 0 1440 700"><g mask="url(&quot;#SvgjsMask1008&quot;)" fill="none"><rect width="1440" height="700" x="0" y="0" fill="rgba(255, 255, 255, 1)"></rect><path d="M-75.61 528.06L-75.61 528.06" stroke="#132e65" stroke-width="1.5"></path><path d="M-75.61 528.06L-81.37 666.72" stroke="#132e65" stroke-width="1.5"></path><path d="M-75.61 528.06L80.65 544.67" stroke="#132e65" stroke-width="1.5"></path><path d="M-75.61 528.06L187.96 550.49" stroke="#132e65" stroke-width="1.5"></path><path d="M-75.61 528.06L87.81 788.48" stroke="#132e65" stroke-width="1.5"></path><path d="M-75.61 528.06L221.15 644.59" stroke="#132e65" stroke-width="1.5"></path><path d="M-75.61 528.06L-92.57 858.88" stroke="#132e65" stroke-width="1.5"></path><path d="M-81.37 666.72L-81.37 666.72" stroke="#132e65" stroke-width="1.5"></path><path d="M-81.37 666.72L-92.57 858.88" stroke="#132e65" stroke-width="1.5"></path><path d="M-92.57 858.88L-92.57 858.88" stroke="#132e65" stroke-width="1.5"></path><path d="M-92.57 858.88L87.81 788.48" stroke="#132e65" stroke-width="1.5"></path><path d="M-92.57 858.88L235.31 829.07" stroke="#132e65" stroke-width="1.5"></path><path d="M-92.57 858.88L80.65 544.67" stroke="#132e65" stroke-width="1.5"></path><path d="M80.65 544.67L80.65 544.67" stroke="#132e65" stroke-width="1.5"></path><path d="M80.65 544.67L187.96 550.49" stroke="#132e65" stroke-width="1.5"></path><path d="M80.65 544.67L221.15 644.59" stroke="#132e65" stroke-width="1.5"></path><path d="M80.65 544.67L-81.37 666.72" stroke="#132e65" stroke-width="1.5"></path><path d="M80.65 544.67L87.81 788.48" stroke="#132e65" stroke-width="1.5"></path><path d="M80.65 544.67L339.57 679.34" stroke="#132e65" stroke-width="1.5"></path><path d="M87.81 788.48L87.81 788.48" stroke="#132e65" stroke-width="1.5"></path><path d="M87.81 788.48L235.31 829.07" stroke="#132e65" stroke-width="1.5"></path><path d="M87.81 788.48L221.15 644.59" stroke="#132e65" stroke-width="1.5"></path><path d="M187.96 550.49L187.96 550.49" stroke="#132e65" stroke-width="1.5"></path><path d="M187.96 550.49L221.15 644.59" stroke="#132e65" stroke-width="1.5"></path><path d="M187.96 550.49L376.96 520.45" stroke="#132e65" stroke-width="1.5"></path><path d="M221.15 644.59L221.15 644.59" stroke="#132e65" stroke-width="1.5"></path><path d="M221.15 644.59L339.57 679.34" stroke="#132e65" stroke-width="1.5"></path><path d="M221.15 644.59L235.31 829.07" stroke="#132e65" stroke-width="1.5"></path><path d="M235.31 829.07L235.31 829.07" stroke="#132e65" stroke-width="1.5"></path><path d="M235.31 829.07L339.57 679.34" stroke="#132e65" stroke-width="1.5"></path><path d="M235.31 829.07L187.96 550.49" stroke="#132e65" stroke-width="1.5"></path><path d="M235.31 829.07L530.88 847.46" stroke="#132e65" stroke-width="1.5"></path><path d="M376.96 520.45L376.96 520.45" stroke="#132e65" stroke-width="1.5"></path><path d="M376.96 520.45L512.41 556.53" stroke="#132e65" stroke-width="1.5"></path><path d="M376.96 520.45L339.57 679.34" stroke="#132e65" stroke-width="1.5"></path><path d="M339.57 679.34L339.57 679.34" stroke="#132e65" stroke-width="1.5"></path><path d="M544.31 361.19L544.31 361.19" stroke="#132e65" stroke-width="1.5"></path><path d="M544.31 361.19L679.96 394.48" stroke="#132e65" stroke-width="1.5"></path><path d="M544.31 361.19L512.41 556.53" stroke="#132e65" stroke-width="1.5"></path><path d="M544.31 361.19L376.96 520.45" stroke="#132e65" stroke-width="1.5"></path><path d="M512.41 556.53L512.41 556.53" stroke="#132e65" stroke-width="1.5"></path><path d="M512.41 556.53L531.12 698.46" stroke="#132e65" stroke-width="1.5"></path><path d="M512.41 556.53L641.22 676.61" stroke="#132e65" stroke-width="1.5"></path><path d="M512.41 556.53L706.15 544.27" stroke="#132e65" stroke-width="1.5"></path><path d="M512.41 556.53L339.57 679.34" stroke="#132e65" stroke-width="1.5"></path><path d="M531.12 698.46L531.12 698.46" stroke="#132e65" stroke-width="1.5"></path><path d="M531.12 698.46L641.22 676.61" stroke="#132e65" stroke-width="1.5"></path><path d="M530.88 847.46L530.88 847.46" stroke="#132e65" stroke-width="1.5"></path><path d="M530.88 847.46L531.12 698.46" stroke="#132e65" stroke-width="1.5"></path><path d="M530.88 847.46L709.16 848.24" stroke="#132e65" stroke-width="1.5"></path><path d="M530.88 847.46L641.22 676.61" stroke="#132e65" stroke-width="1.5"></path><path d="M530.88 847.46L339.57 679.34" stroke="#132e65" stroke-width="1.5"></path><path d="M530.88 847.46L512.41 556.53" stroke="#132e65" stroke-width="1.5"></path><path d="M679.96 394.48L679.96 394.48" stroke="#132e65" stroke-width="1.5"></path><path d="M679.96 394.48L789.17 380.68" stroke="#132e65" stroke-width="1.5"></path><path d="M706.15 544.27L706.15 544.27" stroke="#132e65" stroke-width="1.5"></path><path d="M706.15 544.27L804.55 554.67" stroke="#132e65" stroke-width="1.5"></path><path d="M706.15 544.27L641.22 676.61" stroke="#132e65" stroke-width="1.5"></path><path d="M706.15 544.27L679.96 394.48" stroke="#132e65" stroke-width="1.5"></path><path d="M706.15 544.27L789.17 380.68" stroke="#132e65" stroke-width="1.5"></path><path d="M706.15 544.27L823.96 692.92" stroke="#132e65" stroke-width="1.5"></path><path d="M641.22 676.61L641.22 676.61" stroke="#132e65" stroke-width="1.5"></path><path d="M709.16 848.24L709.16 848.24" stroke="#132e65" stroke-width="1.5"></path><path d="M709.16 848.24L833.26 844.08" stroke="#132e65" stroke-width="1.5"></path><path d="M790.54 249.41L790.54 249.41" stroke="#132e65" stroke-width="1.5"></path><path d="M790.54 249.41L789.17 380.68" stroke="#132e65" stroke-width="1.5"></path><path d="M790.54 249.41L679.96 394.48" stroke="#132e65" stroke-width="1.5"></path><path d="M790.54 249.41L981.03 197.27" stroke="#132e65" stroke-width="1.5"></path><path d="M789.17 380.68L789.17 380.68" stroke="#132e65" stroke-width="1.5"></path><path d="M804.55 554.67L804.55 554.67" stroke="#132e65" stroke-width="1.5"></path><path d="M804.55 554.67L823.96 692.92" stroke="#132e65" stroke-width="1.5"></path><path d="M804.55 554.67L952.8 500.82" stroke="#132e65" stroke-width="1.5"></path><path d="M804.55 554.67L943.8 655.58" stroke="#132e65" stroke-width="1.5"></path><path d="M804.55 554.67L789.17 380.68" stroke="#132e65" stroke-width="1.5"></path><path d="M823.96 692.92L823.96 692.92" stroke="#132e65" stroke-width="1.5"></path><path d="M823.96 692.92L943.8 655.58" stroke="#132e65" stroke-width="1.5"></path><path d="M823.96 692.92L833.26 844.08" stroke="#132e65" stroke-width="1.5"></path><path d="M823.96 692.92L641.22 676.61" stroke="#132e65" stroke-width="1.5"></path><path d="M833.26 844.08L833.26 844.08" stroke="#132e65" stroke-width="1.5"></path><path d="M833.26 844.08L964.26 823.77" stroke="#132e65" stroke-width="1.5"></path><path d="M833.26 844.08L943.8 655.58" stroke="#132e65" stroke-width="1.5"></path><path d="M833.26 844.08L641.22 676.61" stroke="#132e65" stroke-width="1.5"></path><path d="M1010.81 80.37L1010.81 80.37" stroke="#132e65" stroke-width="1.5"></path><path d="M1010.81 80.37L1092.74 72.75" stroke="#132e65" stroke-width="1.5"></path><path d="M1010.81 80.37L981.03 197.27" stroke="#132e65" stroke-width="1.5"></path><path d="M1010.81 80.37L1096.51 -72.87" stroke="#132e65" stroke-width="1.5"></path><path d="M1010.81 80.37L1103.96 242.55" stroke="#132e65" stroke-width="1.5"></path><path d="M1010.81 80.37L1248.71 46.69" stroke="#132e65" stroke-width="1.5"></path><path d="M1010.81 80.37L790.54 249.41" stroke="#132e65" stroke-width="1.5"></path><path d="M981.03 197.27L981.03 197.27" stroke="#132e65" stroke-width="1.5"></path><path d="M981.03 197.27L1103.96 242.55" stroke="#132e65" stroke-width="1.5"></path><path d="M981.03 197.27L1092.74 72.75" stroke="#132e65" stroke-width="1.5"></path><path d="M981.03 197.27L950.21 391.53" stroke="#132e65" stroke-width="1.5"></path><path d="M981.03 197.27L789.17 380.68" stroke="#132e65" stroke-width="1.5"></path><path d="M950.21 391.53L950.21 391.53" stroke="#132e65" stroke-width="1.5"></path><path d="M950.21 391.53L952.8 500.82" stroke="#132e65" stroke-width="1.5"></path><path d="M950.21 391.53L789.17 380.68" stroke="#132e65" stroke-width="1.5"></path><path d="M952.8 500.82L952.8 500.82" stroke="#132e65" stroke-width="1.5"></path><path d="M952.8 500.82L943.8 655.58" stroke="#132e65" stroke-width="1.5"></path><path d="M952.8 500.82L1125.38 541.28" stroke="#132e65" stroke-width="1.5"></path><path d="M952.8 500.82L789.17 380.68" stroke="#132e65" stroke-width="1.5"></path><path d="M943.8 655.58L943.8 655.58" stroke="#132e65" stroke-width="1.5"></path><path d="M943.8 655.58L964.26 823.77" stroke="#132e65" stroke-width="1.5"></path><path d="M964.26 823.77L964.26 823.77" stroke="#132e65" stroke-width="1.5"></path><path d="M964.26 823.77L1151.46 800.57" stroke="#132e65" stroke-width="1.5"></path><path d="M964.26 823.77L823.96 692.92" stroke="#132e65" stroke-width="1.5"></path><path d="M964.26 823.77L1136.36 661.16" stroke="#132e65" stroke-width="1.5"></path><path d="M1096.51 -72.87L1096.51 -72.87" stroke="#132e65" stroke-width="1.5"></path><path d="M1096.51 -72.87L1092.74 72.75" stroke="#132e65" stroke-width="1.5"></path><path d="M1096.51 -72.87L1248.71 46.69" stroke="#132e65" stroke-width="1.5"></path><path d="M1096.51 -72.87L981.03 197.27" stroke="#132e65" stroke-width="1.5"></path><path d="M1096.51 -72.87L1393.73 -66.12" stroke="#132e65" stroke-width="1.5"></path><path d="M1092.74 72.75L1092.74 72.75" stroke="#132e65" stroke-width="1.5"></path><path d="M1103.96 242.55L1103.96 242.55" stroke="#132e65" stroke-width="1.5"></path><path d="M1103.96 242.55L1161.67 402.36" stroke="#132e65" stroke-width="1.5"></path><path d="M1103.96 242.55L1092.74 72.75" stroke="#132e65" stroke-width="1.5"></path><path d="M1161.67 402.36L1161.67 402.36" stroke="#132e65" stroke-width="1.5"></path><path d="M1161.67 402.36L1240.4 393.21" stroke="#132e65" stroke-width="1.5"></path><path d="M1161.67 402.36L1125.38 541.28" stroke="#132e65" stroke-width="1.5"></path><path d="M1161.67 402.36L1297.74 540.85" stroke="#132e65" stroke-width="1.5"></path><path d="M1161.67 402.36L950.21 391.53" stroke="#132e65" stroke-width="1.5"></path><path d="M1125.38 541.28L1125.38 541.28" stroke="#132e65" stroke-width="1.5"></path><path d="M1125.38 541.28L1136.36 661.16" stroke="#132e65" stroke-width="1.5"></path><path d="M1136.36 661.16L1136.36 661.16" stroke="#132e65" stroke-width="1.5"></path><path d="M1136.36 661.16L1151.46 800.57" stroke="#132e65" stroke-width="1.5"></path><path d="M1136.36 661.16L1280.97 668.71" stroke="#132e65" stroke-width="1.5"></path><path d="M1151.46 800.57L1151.46 800.57" stroke="#132e65" stroke-width="1.5"></path><path d="M1151.46 800.57L1271.3 846.67" stroke="#132e65" stroke-width="1.5"></path><path d="M1151.46 800.57L1280.97 668.71" stroke="#132e65" stroke-width="1.5"></path><path d="M1248.71 46.69L1248.71 46.69" stroke="#132e65" stroke-width="1.5"></path><path d="M1248.71 46.69L1396.46 67.73" stroke="#132e65" stroke-width="1.5"></path><path d="M1248.71 46.69L1092.74 72.75" stroke="#132e65" stroke-width="1.5"></path><path d="M1248.71 46.69L1299.82 212.93" stroke="#132e65" stroke-width="1.5"></path><path d="M1248.71 46.69L1393.73 -66.12" stroke="#132e65" stroke-width="1.5"></path><path d="M1299.82 212.93L1299.82 212.93" stroke="#132e65" stroke-width="1.5"></path><path d="M1299.82 212.93L1434.11 222.92" stroke="#132e65" stroke-width="1.5"></path><path d="M1299.82 212.93L1396.46 67.73" stroke="#132e65" stroke-width="1.5"></path><path d="M1299.82 212.93L1240.4 393.21" stroke="#132e65" stroke-width="1.5"></path><path d="M1240.4 393.21L1240.4 393.21" stroke="#132e65" stroke-width="1.5"></path><path d="M1240.4 393.21L1297.74 540.85" stroke="#132e65" stroke-width="1.5"></path><path d="M1240.4 393.21L1413.38 396.57" stroke="#132e65" stroke-width="1.5"></path><path d="M1297.74 540.85L1297.74 540.85" stroke="#132e65" stroke-width="1.5"></path><path d="M1297.74 540.85L1280.97 668.71" stroke="#132e65" stroke-width="1.5"></path><path d="M1297.74 540.85L1426.12 527.32" stroke="#132e65" stroke-width="1.5"></path><path d="M1297.74 540.85L1125.38 541.28" stroke="#132e65" stroke-width="1.5"></path><path d="M1297.74 540.85L1413.38 396.57" stroke="#132e65" stroke-width="1.5"></path><path d="M1280.97 668.71L1280.97 668.71" stroke="#132e65" stroke-width="1.5"></path><path d="M1280.97 668.71L1448.43 699.02" stroke="#132e65" stroke-width="1.5"></path><path d="M1271.3 846.67L1271.3 846.67" stroke="#132e65" stroke-width="1.5"></path><path d="M1271.3 846.67L1423.63 822.38" stroke="#132e65" stroke-width="1.5"></path><path d="M1271.3 846.67L1280.97 668.71" stroke="#132e65" stroke-width="1.5"></path><path d="M1271.3 846.67L1136.36 661.16" stroke="#132e65" stroke-width="1.5"></path><path d="M1271.3 846.67L1448.43 699.02" stroke="#132e65" stroke-width="1.5"></path><path d="M1271.3 846.67L1540.94 710.06" stroke="#132e65" stroke-width="1.5"></path><path d="M1393.73 -66.12L1393.73 -66.12" stroke="#132e65" stroke-width="1.5"></path><path d="M1393.73 -66.12L1396.46 67.73" stroke="#132e65" stroke-width="1.5"></path><path d="M1393.73 -66.12L1572.59 -65.81" stroke="#132e65" stroke-width="1.5"></path><path d="M1396.46 67.73L1396.46 67.73" stroke="#132e65" stroke-width="1.5"></path><path d="M1396.46 67.73L1434.11 222.92" stroke="#132e65" stroke-width="1.5"></path><path d="M1396.46 67.73L1556.21 76.77" stroke="#132e65" stroke-width="1.5"></path><path d="M1434.11 222.92L1434.11 222.92" stroke="#132e65" stroke-width="1.5"></path><path d="M1434.11 222.92L1549.49 219.84" stroke="#132e65" stroke-width="1.5"></path><path d="M1413.38 396.57L1413.38 396.57" stroke="#132e65" stroke-width="1.5"></path><path d="M1413.38 396.57L1426.12 527.32" stroke="#132e65" stroke-width="1.5"></path><path d="M1413.38 396.57L1434.11 222.92" stroke="#132e65" stroke-width="1.5"></path><path d="M1426.12 527.32L1426.12 527.32" stroke="#132e65" stroke-width="1.5"></path><path d="M1426.12 527.32L1561.08 491.2" stroke="#132e65" stroke-width="1.5"></path><path d="M1426.12 527.32L1448.43 699.02" stroke="#132e65" stroke-width="1.5"></path><path d="M1426.12 527.32L1280.97 668.71" stroke="#132e65" stroke-width="1.5"></path><path d="M1448.43 699.02L1448.43 699.02" stroke="#132e65" stroke-width="1.5"></path><path d="M1448.43 699.02L1540.94 710.06" stroke="#132e65" stroke-width="1.5"></path><path d="M1448.43 699.02L1423.63 822.38" stroke="#132e65" stroke-width="1.5"></path><path d="M1423.63 822.38L1423.63 822.38" stroke="#132e65" stroke-width="1.5"></path><path d="M1572.59 -65.81L1572.59 -65.81" stroke="#132e65" stroke-width="1.5"></path><path d="M1572.59 -65.81L1556.21 76.77" stroke="#132e65" stroke-width="1.5"></path><path d="M1572.59 -65.81L1396.46 67.73" stroke="#132e65" stroke-width="1.5"></path><path d="M1556.21 76.77L1556.21 76.77" stroke="#132e65" stroke-width="1.5"></path><path d="M1556.21 76.77L1549.49 219.84" stroke="#132e65" stroke-width="1.5"></path><path d="M1549.49 219.84L1549.49 219.84" stroke="#132e65" stroke-width="1.5"></path><path d="M1549.49 219.84L1396.46 67.73" stroke="#132e65" stroke-width="1.5"></path><path d="M1549.49 219.84L1413.38 396.57" stroke="#132e65" stroke-width="1.5"></path><path d="M1549.49 219.84L1299.82 212.93" stroke="#132e65" stroke-width="1.5"></path><path d="M1549.49 219.84L1561.08 491.2" stroke="#132e65" stroke-width="1.5"></path><path d="M1561.08 491.2L1561.08 491.2" stroke="#132e65" stroke-width="1.5"></path><path d="M1561.08 491.2L1413.38 396.57" stroke="#132e65" stroke-width="1.5"></path><path d="M1561.08 491.2L1540.94 710.06" stroke="#132e65" stroke-width="1.5"></path><path d="M1561.08 491.2L1448.43 699.02" stroke="#132e65" stroke-width="1.5"></path><path d="M1561.08 491.2L1297.74 540.85" stroke="#132e65" stroke-width="1.5"></path><path d="M1540.94 710.06L1540.94 710.06" stroke="#132e65" stroke-width="1.5"></path><path d="M1540.94 710.06L1604.86 808.48" stroke="#132e65" stroke-width="1.5"></path><path d="M1540.94 710.06L1423.63 822.38" stroke="#132e65" stroke-width="1.5"></path><path d="M1540.94 710.06L1426.12 527.32" stroke="#132e65" stroke-width="1.5"></path><path d="M1604.86 808.48L1604.86 808.48" stroke="#132e65" stroke-width="1.5"></path><path d="M1604.86 808.48L1423.63 822.38" stroke="#132e65" stroke-width="1.5"></path><path d="M1604.86 808.48L1448.43 699.02" stroke="#132e65" stroke-width="1.5"></path><path d="M1604.86 808.48L1561.08 491.2" stroke="#132e65" stroke-width="1.5"></path><circle r="5" cx="-75.61" cy="528.06" fill="#132e65"></circle><circle r="5" cx="-81.37" cy="666.72" fill="#132e65"></circle><circle r="5" cx="-92.57" cy="858.88" fill="#132e65"></circle><circle r="5" cx="80.65" cy="544.67" fill="#132e65"></circle><circle r="5" cx="87.81" cy="788.48" fill="#132e65"></circle><circle r="5" cx="187.96" cy="550.49" fill="#132e65"></circle><circle r="5" cx="221.15" cy="644.59" fill="#132e65"></circle><circle r="5" cx="235.31" cy="829.07" fill="#132e65"></circle><circle r="5" cx="376.96" cy="520.45" fill="#132e65"></circle><circle r="5" cx="339.57" cy="679.34" fill="#132e65"></circle><circle r="5" cx="544.31" cy="361.19" fill="#132e65"></circle><circle r="5" cx="512.41" cy="556.53" fill="#132e65"></circle><circle r="5" cx="531.12" cy="698.46" fill="#132e65"></circle><circle r="5" cx="530.88" cy="847.46" fill="#132e65"></circle><circle r="5" cx="679.96" cy="394.48" fill="#132e65"></circle><circle r="5" cx="706.15" cy="544.27" fill="#132e65"></circle><circle r="5" cx="641.22" cy="676.61" fill="#132e65"></circle><circle r="5" cx="709.16" cy="848.24" fill="#132e65"></circle><circle r="5" cx="790.54" cy="249.41" fill="#132e65"></circle><circle r="5" cx="789.17" cy="380.68" fill="#132e65"></circle><circle r="5" cx="804.55" cy="554.67" fill="#132e65"></circle><circle r="5" cx="823.96" cy="692.92" fill="#132e65"></circle><circle r="5" cx="833.26" cy="844.08" fill="#132e65"></circle><circle r="5" cx="1010.81" cy="80.37" fill="#132e65"></circle><circle r="5" cx="981.03" cy="197.27" fill="#132e65"></circle><circle r="5" cx="950.21" cy="391.53" fill="#132e65"></circle><circle r="5" cx="952.8" cy="500.82" fill="#132e65"></circle><circle r="5" cx="943.8" cy="655.58" fill="#132e65"></circle><circle r="5" cx="964.26" cy="823.77" fill="#132e65"></circle><circle r="5" cx="1096.51" cy="-72.87" fill="#132e65"></circle><circle r="5" cx="1092.74" cy="72.75" fill="#132e65"></circle><circle r="5" cx="1103.96" cy="242.55" fill="#132e65"></circle><circle r="5" cx="1161.67" cy="402.36" fill="#132e65"></circle><circle r="5" cx="1125.38" cy="541.28" fill="#132e65"></circle><circle r="5" cx="1136.36" cy="661.16" fill="#132e65"></circle><circle r="5" cx="1151.46" cy="800.57" fill="#132e65"></circle><circle r="5" cx="1248.71" cy="46.69" fill="#132e65"></circle><circle r="5" cx="1299.82" cy="212.93" fill="#132e65"></circle><circle r="5" cx="1240.4" cy="393.21" fill="#132e65"></circle><circle r="5" cx="1297.74" cy="540.85" fill="#132e65"></circle><circle r="5" cx="1280.97" cy="668.71" fill="#132e65"></circle><circle r="5" cx="1271.3" cy="846.67" fill="#132e65"></circle><circle r="5" cx="1393.73" cy="-66.12" fill="#132e65"></circle><circle r="5" cx="1396.46" cy="67.73" fill="#132e65"></circle><circle r="5" cx="1434.11" cy="222.92" fill="#132e65"></circle><circle r="5" cx="1413.38" cy="396.57" fill="#132e65"></circle><circle r="5" cx="1426.12" cy="527.32" fill="#132e65"></circle><circle r="5" cx="1448.43" cy="699.02" fill="#132e65"></circle><circle r="5" cx="1423.63" cy="822.38" fill="#132e65"></circle><circle r="5" cx="1572.59" cy="-65.81" fill="#132e65"></circle><circle r="5" cx="1556.21" cy="76.77" fill="#132e65"></circle><circle r="5" cx="1549.49" cy="219.84" fill="#132e65"></circle><circle r="5" cx="1561.08" cy="491.2" fill="#132e65"></circle><circle r="5" cx="1540.94" cy="710.06" fill="#132e65"></circle><circle r="5" cx="1604.86" cy="808.48" fill="#132e65"></circle><path d="M686.51 701.87L686.51 701.87" stroke="hsl(228.5, 77.2%, 51.5%)" stroke-width="1.5"></path><path d="M686.51 701.87L696.9 805.01" stroke="hsl(228.5, 77.2%, 51.5%)" stroke-width="1.5"></path><path d="M686.51 701.87L653.94 531.03" stroke="hsl(228.5, 77.2%, 51.5%)" stroke-width="1.5"></path><path d="M686.51 701.87L858.12 662.59" stroke="hsl(228.5, 77.2%, 51.5%)" stroke-width="1.5"></path><path d="M843.21 834.02L843.21 834.02" stroke="hsl(228.5, 77.2%, 51.5%)" stroke-width="1.5"></path><path d="M843.21 834.02L984.78 826.8" stroke="hsl(228.5, 77.2%, 51.5%)" stroke-width="1.5"></path><path d="M843.21 834.02L696.9 805.01" stroke="hsl(228.5, 77.2%, 51.5%)" stroke-width="1.5"></path><path d="M843.21 834.02L858.12 662.59" stroke="hsl(228.5, 77.2%, 51.5%)" stroke-width="1.5"></path><path d="M965.78 496.47L965.78 496.47" stroke="hsl(228.5, 77.2%, 51.5%)" stroke-width="1.5"></path><path d="M965.78 496.47L973.82 655.59" stroke="hsl(228.5, 77.2%, 51.5%)" stroke-width="1.5"></path><path d="M965.78 496.47L794.2 536.4" stroke="hsl(228.5, 77.2%, 51.5%)" stroke-width="1.5"></path><path d="M965.78 496.47L1128.6 410.88" stroke="hsl(228.5, 77.2%, 51.5%)" stroke-width="1.5"></path><path d="M965.78 496.47L1159.3 513.91" stroke="hsl(228.5, 77.2%, 51.5%)" stroke-width="1.5"></path><path d="M965.78 496.47L858.12 662.59" stroke="hsl(228.5, 77.2%, 51.5%)" stroke-width="1.5"></path><path d="M973.82 655.59L973.82 655.59" stroke="hsl(228.5, 77.2%, 51.5%)" stroke-width="1.5"></path><path d="M973.82 655.59L858.12 662.59" stroke="hsl(228.5, 77.2%, 51.5%)" stroke-width="1.5"></path><path d="M973.82 655.59L1130.42 702.42" stroke="hsl(228.5, 77.2%, 51.5%)" stroke-width="1.5"></path><path d="M973.82 655.59L984.78 826.8" stroke="hsl(228.5, 77.2%, 51.5%)" stroke-width="1.5"></path><path d="M1128.6 410.88L1128.6 410.88" stroke="hsl(228.5, 77.2%, 51.5%)" stroke-width="1.5"></path><path d="M1128.6 410.88L1159.3 513.91" stroke="hsl(228.5, 77.2%, 51.5%)" stroke-width="1.5"></path><path d="M1128.6 410.88L1112.49 235.75" stroke="hsl(228.5, 77.2%, 51.5%)" stroke-width="1.5"></path><path d="M1128.6 410.88L1311.08 391.75" stroke="hsl(228.5, 77.2%, 51.5%)" stroke-width="1.5"></path><path d="M1128.6 410.88L1264.29 537.9" stroke="hsl(228.5, 77.2%, 51.5%)" stroke-width="1.5"></path><path d="M1410.41 -68.22L1410.41 -68.22" stroke="hsl(228.5, 77.2%, 51.5%)" stroke-width="1.5"></path><path d="M1410.41 -68.22L1274.99 -63.13" stroke="hsl(228.5, 77.2%, 51.5%)" stroke-width="1.5"></path><path d="M1410.41 -68.22L1454.44 76.16" stroke="hsl(228.5, 77.2%, 51.5%)" stroke-width="1.5"></path><path d="M1410.41 -68.22L1609.39 -45.56" stroke="hsl(228.5, 77.2%, 51.5%)" stroke-width="1.5"></path><path d="M1410.41 -68.22L1296.55 106.41" stroke="hsl(228.5, 77.2%, 51.5%)" stroke-width="1.5"></path><path d="M1410.41 -68.22L1571.12 65.5" stroke="hsl(228.5, 77.2%, 51.5%)" stroke-width="1.5"></path><path d="M1410.41 -68.22L1282.54 225.32" stroke="hsl(228.5, 77.2%, 51.5%)" stroke-width="1.5"></path><path d="M-94.77 645.12L-94.77 645.12" stroke="hsl(228.5, 77.2%, 51.5%)" stroke-width="1.5"></path><path d="M-94.77 645.12L40.29 667.2" stroke="hsl(228.5, 77.2%, 51.5%)" stroke-width="1.5"></path><path d="M-94.77 645.12L40.22 825.86" stroke="hsl(228.5, 77.2%, 51.5%)" stroke-width="1.5"></path><path d="M-94.77 645.12L209.55 638.67" stroke="hsl(228.5, 77.2%, 51.5%)" stroke-width="1.5"></path><path d="M-94.77 645.12L261.54 808.71" stroke="hsl(228.5, 77.2%, 51.5%)" stroke-width="1.5"></path><path d="M40.29 667.2L40.29 667.2" stroke="hsl(228.5, 77.2%, 51.5%)" stroke-width="1.5"></path><path d="M40.29 667.2L40.22 825.86" stroke="hsl(228.5, 77.2%, 51.5%)" stroke-width="1.5"></path><path d="M40.29 667.2L209.55 638.67" stroke="hsl(228.5, 77.2%, 51.5%)" stroke-width="1.5"></path><path d="M40.29 667.2L261.54 808.71" stroke="hsl(228.5, 77.2%, 51.5%)" stroke-width="1.5"></path><path d="M40.29 667.2L360.74 674.35" stroke="hsl(228.5, 77.2%, 51.5%)" stroke-width="1.5"></path><path d="M40.29 667.2L357.76 830.79" stroke="hsl(228.5, 77.2%, 51.5%)" stroke-width="1.5"></path><path d="M40.22 825.86L40.22 825.86" stroke="hsl(228.5, 77.2%, 51.5%)" stroke-width="1.5"></path><path d="M40.22 825.86L261.54 808.71" stroke="hsl(228.5, 77.2%, 51.5%)" stroke-width="1.5"></path><path d="M209.55 638.67L209.55 638.67" stroke="hsl(228.5, 77.2%, 51.5%)" stroke-width="1.5"></path><path d="M209.55 638.67L360.74 674.35" stroke="hsl(228.5, 77.2%, 51.5%)" stroke-width="1.5"></path><path d="M261.54 808.71L261.54 808.71" stroke="hsl(228.5, 77.2%, 51.5%)" stroke-width="1.5"></path><path d="M261.54 808.71L357.76 830.79" stroke="hsl(228.5, 77.2%, 51.5%)" stroke-width="1.5"></path><path d="M261.54 808.71L360.74 674.35" stroke="hsl(228.5, 77.2%, 51.5%)" stroke-width="1.5"></path><path d="M360.74 674.35L360.74 674.35" stroke="hsl(228.5, 77.2%, 51.5%)" stroke-width="1.5"></path><path d="M360.74 674.35L498.02 676.31" stroke="hsl(228.5, 77.2%, 51.5%)" stroke-width="1.5"></path><path d="M360.74 674.35L357.76 830.79" stroke="hsl(228.5, 77.2%, 51.5%)" stroke-width="1.5"></path><path d="M360.74 674.35L501.14 812.21" stroke="hsl(228.5, 77.2%, 51.5%)" stroke-width="1.5"></path><path d="M357.76 830.79L357.76 830.79" stroke="hsl(228.5, 77.2%, 51.5%)" stroke-width="1.5"></path><path d="M357.76 830.79L501.14 812.21" stroke="hsl(228.5, 77.2%, 51.5%)" stroke-width="1.5"></path><path d="M498.02 676.31L498.02 676.31" stroke="hsl(228.5, 77.2%, 51.5%)" stroke-width="1.5"></path><path d="M498.02 676.31L501.14 812.21" stroke="hsl(228.5, 77.2%, 51.5%)" stroke-width="1.5"></path><path d="M498.02 676.31L686.51 701.87" stroke="hsl(228.5, 77.2%, 51.5%)" stroke-width="1.5"></path><path d="M498.02 676.31L357.76 830.79" stroke="hsl(228.5, 77.2%, 51.5%)" stroke-width="1.5"></path><path d="M501.14 812.21L501.14 812.21" stroke="hsl(228.5, 77.2%, 51.5%)" stroke-width="1.5"></path><path d="M653.94 531.03L653.94 531.03" stroke="hsl(228.5, 77.2%, 51.5%)" stroke-width="1.5"></path><path d="M653.94 531.03L794.2 536.4" stroke="hsl(228.5, 77.2%, 51.5%)" stroke-width="1.5"></path><path d="M696.9 805.01L696.9 805.01" stroke="hsl(228.5, 77.2%, 51.5%)" stroke-width="1.5"></path><path d="M696.9 805.01L501.14 812.21" stroke="hsl(228.5, 77.2%, 51.5%)" stroke-width="1.5"></path><path d="M794.2 536.4L794.2 536.4" stroke="hsl(228.5, 77.2%, 51.5%)" stroke-width="1.5"></path><path d="M794.2 536.4L858.12 662.59" stroke="hsl(228.5, 77.2%, 51.5%)" stroke-width="1.5"></path><path d="M794.2 536.4L686.51 701.87" stroke="hsl(228.5, 77.2%, 51.5%)" stroke-width="1.5"></path><path d="M794.2 536.4L973.82 655.59" stroke="hsl(228.5, 77.2%, 51.5%)" stroke-width="1.5"></path><path d="M858.12 662.59L858.12 662.59" stroke="hsl(228.5, 77.2%, 51.5%)" stroke-width="1.5"></path><path d="M984.78 826.8L984.78 826.8" stroke="hsl(228.5, 77.2%, 51.5%)" stroke-width="1.5"></path><path d="M984.78 826.8L1102.63 810.54" stroke="hsl(228.5, 77.2%, 51.5%)" stroke-width="1.5"></path><path d="M1112.49 235.75L1112.49 235.75" stroke="hsl(228.5, 77.2%, 51.5%)" stroke-width="1.5"></path><path d="M1112.49 235.75L1282.54 225.32" stroke="hsl(228.5, 77.2%, 51.5%)" stroke-width="1.5"></path><path d="M1112.49 235.75L1296.55 106.41" stroke="hsl(228.5, 77.2%, 51.5%)" stroke-width="1.5"></path><path d="M1112.49 235.75L1311.08 391.75" stroke="hsl(228.5, 77.2%, 51.5%)" stroke-width="1.5"></path><path d="M1159.3 513.91L1159.3 513.91" stroke="hsl(228.5, 77.2%, 51.5%)" stroke-width="1.5"></path><path d="M1159.3 513.91L1264.29 537.9" stroke="hsl(228.5, 77.2%, 51.5%)" stroke-width="1.5"></path><path d="M1159.3 513.91L1130.42 702.42" stroke="hsl(228.5, 77.2%, 51.5%)" stroke-width="1.5"></path><path d="M1159.3 513.91L1311.08 391.75" stroke="hsl(228.5, 77.2%, 51.5%)" stroke-width="1.5"></path><path d="M1130.42 702.42L1130.42 702.42" stroke="hsl(228.5, 77.2%, 51.5%)" stroke-width="1.5"></path><path d="M1130.42 702.42L1240.93 700.99" stroke="hsl(228.5, 77.2%, 51.5%)" stroke-width="1.5"></path><path d="M1130.42 702.42L1102.63 810.54" stroke="hsl(228.5, 77.2%, 51.5%)" stroke-width="1.5"></path><path d="M1130.42 702.42L1280.08 820.17" stroke="hsl(228.5, 77.2%, 51.5%)" stroke-width="1.5"></path><path d="M1102.63 810.54L1102.63 810.54" stroke="hsl(228.5, 77.2%, 51.5%)" stroke-width="1.5"></path><path d="M1102.63 810.54L1240.93 700.99" stroke="hsl(228.5, 77.2%, 51.5%)" stroke-width="1.5"></path><path d="M1102.63 810.54L1280.08 820.17" stroke="hsl(228.5, 77.2%, 51.5%)" stroke-width="1.5"></path><path d="M1102.63 810.54L973.82 655.59" stroke="hsl(228.5, 77.2%, 51.5%)" stroke-width="1.5"></path><path d="M1102.63 810.54L843.21 834.02" stroke="hsl(228.5, 77.2%, 51.5%)" stroke-width="1.5"></path><path d="M1274.99 -63.13L1274.99 -63.13" stroke="hsl(228.5, 77.2%, 51.5%)" stroke-width="1.5"></path><path d="M1274.99 -63.13L1296.55 106.41" stroke="hsl(228.5, 77.2%, 51.5%)" stroke-width="1.5"></path><path d="M1274.99 -63.13L1454.44 76.16" stroke="hsl(228.5, 77.2%, 51.5%)" stroke-width="1.5"></path><path d="M1296.55 106.41L1296.55 106.41" stroke="hsl(228.5, 77.2%, 51.5%)" stroke-width="1.5"></path><path d="M1296.55 106.41L1282.54 225.32" stroke="hsl(228.5, 77.2%, 51.5%)" stroke-width="1.5"></path><path d="M1296.55 106.41L1454.44 76.16" stroke="hsl(228.5, 77.2%, 51.5%)" stroke-width="1.5"></path><path d="M1282.54 225.32L1282.54 225.32" stroke="hsl(228.5, 77.2%, 51.5%)" stroke-width="1.5"></path><path d="M1282.54 225.32L1311.08 391.75" stroke="hsl(228.5, 77.2%, 51.5%)" stroke-width="1.5"></path><path d="M1311.08 391.75L1311.08 391.75" stroke="hsl(228.5, 77.2%, 51.5%)" stroke-width="1.5"></path><path d="M1311.08 391.75L1418.49 395.76" stroke="hsl(228.5, 77.2%, 51.5%)" stroke-width="1.5"></path><path d="M1311.08 391.75L1264.29 537.9" stroke="hsl(228.5, 77.2%, 51.5%)" stroke-width="1.5"></path><path d="M1264.29 537.9L1264.29 537.9" stroke="hsl(228.5, 77.2%, 51.5%)" stroke-width="1.5"></path><path d="M1240.93 700.99L1240.93 700.99" stroke="hsl(228.5, 77.2%, 51.5%)" stroke-width="1.5"></path><path d="M1240.93 700.99L1280.08 820.17" stroke="hsl(228.5, 77.2%, 51.5%)" stroke-width="1.5"></path><path d="M1240.93 700.99L1264.29 537.9" stroke="hsl(228.5, 77.2%, 51.5%)" stroke-width="1.5"></path><path d="M1280.08 820.17L1280.08 820.17" stroke="hsl(228.5, 77.2%, 51.5%)" stroke-width="1.5"></path><path d="M1280.08 820.17L1459.43 829.67" stroke="hsl(228.5, 77.2%, 51.5%)" stroke-width="1.5"></path><path d="M1454.44 76.16L1454.44 76.16" stroke="hsl(228.5, 77.2%, 51.5%)" stroke-width="1.5"></path><path d="M1454.44 76.16L1571.12 65.5" stroke="hsl(228.5, 77.2%, 51.5%)" stroke-width="1.5"></path><path d="M1418.49 395.76L1418.49 395.76" stroke="hsl(228.5, 77.2%, 51.5%)" stroke-width="1.5"></path><path d="M1418.49 395.76L1598.42 352.45" stroke="hsl(228.5, 77.2%, 51.5%)" stroke-width="1.5"></path><path d="M1418.49 395.76L1582 494.69" stroke="hsl(228.5, 77.2%, 51.5%)" stroke-width="1.5"></path><path d="M1418.49 395.76L1264.29 537.9" stroke="hsl(228.5, 77.2%, 51.5%)" stroke-width="1.5"></path><path d="M1459.43 829.67L1459.43 829.67" stroke="hsl(228.5, 77.2%, 51.5%)" stroke-width="1.5"></path><path d="M1459.43 829.67L1602 798.87" stroke="hsl(228.5, 77.2%, 51.5%)" stroke-width="1.5"></path><path d="M1459.43 829.67L1553.63 708.21" stroke="hsl(228.5, 77.2%, 51.5%)" stroke-width="1.5"></path><path d="M1459.43 829.67L1240.93 700.99" stroke="hsl(228.5, 77.2%, 51.5%)" stroke-width="1.5"></path><path d="M1459.43 829.67L1264.29 537.9" stroke="hsl(228.5, 77.2%, 51.5%)" stroke-width="1.5"></path><path d="M1459.43 829.67L1130.42 702.42" stroke="hsl(228.5, 77.2%, 51.5%)" stroke-width="1.5"></path><path d="M1609.39 -45.56L1609.39 -45.56" stroke="hsl(228.5, 77.2%, 51.5%)" stroke-width="1.5"></path><path d="M1609.39 -45.56L1571.12 65.5" stroke="hsl(228.5, 77.2%, 51.5%)" stroke-width="1.5"></path><path d="M1609.39 -45.56L1454.44 76.16" stroke="hsl(228.5, 77.2%, 51.5%)" stroke-width="1.5"></path><path d="M1609.39 -45.56L1600.24 197.75" stroke="hsl(228.5, 77.2%, 51.5%)" stroke-width="1.5"></path><path d="M1609.39 -45.56L1274.99 -63.13" stroke="hsl(228.5, 77.2%, 51.5%)" stroke-width="1.5"></path><path d="M1571.12 65.5L1571.12 65.5" stroke="hsl(228.5, 77.2%, 51.5%)" stroke-width="1.5"></path><path d="M1571.12 65.5L1600.24 197.75" stroke="hsl(228.5, 77.2%, 51.5%)" stroke-width="1.5"></path><path d="M1600.24 197.75L1600.24 197.75" stroke="hsl(228.5, 77.2%, 51.5%)" stroke-width="1.5"></path><path d="M1600.24 197.75L1598.42 352.45" stroke="hsl(228.5, 77.2%, 51.5%)" stroke-width="1.5"></path><path d="M1600.24 197.75L1454.44 76.16" stroke="hsl(228.5, 77.2%, 51.5%)" stroke-width="1.5"></path><path d="M1600.24 197.75L1418.49 395.76" stroke="hsl(228.5, 77.2%, 51.5%)" stroke-width="1.5"></path><path d="M1598.42 352.45L1598.42 352.45" stroke="hsl(228.5, 77.2%, 51.5%)" stroke-width="1.5"></path><path d="M1598.42 352.45L1582 494.69" stroke="hsl(228.5, 77.2%, 51.5%)" stroke-width="1.5"></path><path d="M1598.42 352.45L1571.12 65.5" stroke="hsl(228.5, 77.2%, 51.5%)" stroke-width="1.5"></path><path d="M1598.42 352.45L1311.08 391.75" stroke="hsl(228.5, 77.2%, 51.5%)" stroke-width="1.5"></path><path d="M1598.42 352.45L1454.44 76.16" stroke="hsl(228.5, 77.2%, 51.5%)" stroke-width="1.5"></path><path d="M1582 494.69L1582 494.69" stroke="hsl(228.5, 77.2%, 51.5%)" stroke-width="1.5"></path><path d="M1582 494.69L1553.63 708.21" stroke="hsl(228.5, 77.2%, 51.5%)" stroke-width="1.5"></path><path d="M1582 494.69L1311.08 391.75" stroke="hsl(228.5, 77.2%, 51.5%)" stroke-width="1.5"></path><path d="M1582 494.69L1600.24 197.75" stroke="hsl(228.5, 77.2%, 51.5%)" stroke-width="1.5"></path><path d="M1582 494.69L1602 798.87" stroke="hsl(228.5, 77.2%, 51.5%)" stroke-width="1.5"></path><path d="M1553.63 708.21L1553.63 708.21" stroke="hsl(228.5, 77.2%, 51.5%)" stroke-width="1.5"></path><path d="M1553.63 708.21L1602 798.87" stroke="hsl(228.5, 77.2%, 51.5%)" stroke-width="1.5"></path><path d="M1553.63 708.21L1280.08 820.17" stroke="hsl(228.5, 77.2%, 51.5%)" stroke-width="1.5"></path><path d="M1602 798.87L1602 798.87" stroke="hsl(228.5, 77.2%, 51.5%)" stroke-width="1.5"></path><circle r="25" cx="686.51" cy="701.87" fill="url(&quot;#SvgjsRadialGradient1009&quot;)"></circle><circle r="25" cx="843.21" cy="834.02" fill="url(&quot;#SvgjsRadialGradient1009&quot;)"></circle><circle r="25" cx="965.78" cy="496.47" fill="url(&quot;#SvgjsRadialGradient1009&quot;)"></circle><circle r="25" cx="973.82" cy="655.59" fill="url(&quot;#SvgjsRadialGradient1009&quot;)"></circle><circle r="25" cx="1128.6" cy="410.88" fill="url(&quot;#SvgjsRadialGradient1009&quot;)"></circle><circle r="25" cx="1410.41" cy="-68.22" fill="url(&quot;#SvgjsRadialGradient1009&quot;)"></circle><circle r="5" cx="-94.77" cy="645.12" fill="#8b9ad9"></circle><circle r="5" cx="40.29" cy="667.2" fill="#8b9ad9"></circle><circle r="5" cx="40.22" cy="825.86" fill="#8b9ad9"></circle><circle r="5" cx="209.55" cy="638.67" fill="#8b9ad9"></circle><circle r="5" cx="261.54" cy="808.71" fill="#8b9ad9"></circle><circle r="5" cx="360.74" cy="674.35" fill="#8b9ad9"></circle><circle r="5" cx="357.76" cy="830.79" fill="#8b9ad9"></circle><circle r="5" cx="498.02" cy="676.31" fill="#8b9ad9"></circle><circle r="5" cx="501.14" cy="812.21" fill="#8b9ad9"></circle><circle r="5" cx="653.94" cy="531.03" fill="#8b9ad9"></circle><circle r="5" cx="696.9" cy="805.01" fill="#8b9ad9"></circle><circle r="5" cx="794.2" cy="536.4" fill="#8b9ad9"></circle><circle r="5" cx="858.12" cy="662.59" fill="#8b9ad9"></circle><circle r="5" cx="984.78" cy="826.8" fill="#8b9ad9"></circle><circle r="5" cx="1112.49" cy="235.75" fill="#8b9ad9"></circle><circle r="5" cx="1159.3" cy="513.91" fill="#8b9ad9"></circle><circle r="5" cx="1130.42" cy="702.42" fill="#8b9ad9"></circle><circle r="5" cx="1102.63" cy="810.54" fill="#8b9ad9"></circle><circle r="5" cx="1274.99" cy="-63.13" fill="#8b9ad9"></circle><circle r="5" cx="1296.55" cy="106.41" fill="#8b9ad9"></circle><circle r="5" cx="1282.54" cy="225.32" fill="#8b9ad9"></circle><circle r="5" cx="1311.08" cy="391.75" fill="#8b9ad9"></circle><circle r="5" cx="1264.29" cy="537.9" fill="#8b9ad9"></circle><circle r="5" cx="1240.93" cy="700.99" fill="#8b9ad9"></circle><circle r="5" cx="1280.08" cy="820.17" fill="#8b9ad9"></circle><circle r="5" cx="1454.44" cy="76.16" fill="#8b9ad9"></circle><circle r="5" cx="1418.49" cy="395.76" fill="#8b9ad9"></circle><circle r="5" cx="1459.43" cy="829.67" fill="#8b9ad9"></circle><circle r="5" cx="1609.39" cy="-45.56" fill="#8b9ad9"></circle><circle r="5" cx="1571.12" cy="65.5" fill="#8b9ad9"></circle><circle r="5" cx="1600.24" cy="197.75" fill="#8b9ad9"></circle><circle r="5" cx="1598.42" cy="352.45" fill="#8b9ad9"></circle><circle r="5" cx="1582" cy="494.69" fill="#8b9ad9"></circle><circle r="5" cx="1553.63" cy="708.21" fill="#8b9ad9"></circle><circle r="5" cx="1602" cy="798.87" fill="#8b9ad9"></circle></g><defs><mask id="SvgjsMask1008"><rect width="1440" height="700" fill="#ffffff"></rect></mask><radialGradient id="SvgjsRadialGradient1009"><stop stop-color="#ffffff" offset="0.1"></stop><stop stop-color="#1735b3" offset="0.2"></stop><stop stop-color="rgba(23, 53, 179, 0)" offset="1"></stop></radialGradient></defs></svg>